<svg width="16" height="16" viewBox="0 0 40 40" preserveAspectRatio="xMidYMid meet" fill="none" xmlns="http://www.w3.org/2000/svg">
<path d="M13.82 33.72C10.78 33.72 8.22 33.24 6.14 32.28C4.06 31.28 2.2 29.88 0.56 28.08L5.78 22.8C6.9 24.04 8.14 25.02 9.5 25.74C10.86 26.46 12.4 26.82 14.12 26.82C15.88 26.82 17.1 26.56 17.78 26.04C18.46 25.48 18.8 24.74 18.8 23.82C18.8 22.34 17.74 21.46 15.62 21.18L12.2 20.76C5.12 19.88 1.58 16.64 1.58 11.04C1.58 9.52 1.86 8.14 2.42 6.9C3.02 5.62 3.84 4.54 4.88 3.66C5.96 2.74 7.24 2.04 8.72 1.56C10.24 1.04 11.94 0.78 13.82 0.78C15.46 0.78 16.9 0.9 18.14 1.14C19.42 1.34 20.54 1.66 21.5 2.1C22.5 2.5 23.4 3.02 24.2 3.66C25.04 4.26 25.86 4.94 26.66 5.7L21.56 10.92C20.56 9.92 19.42 9.14 18.14 8.58C16.9 7.98 15.62 7.68 14.3 7.68C12.78 7.68 11.7 7.92 11.06 8.4C10.42 8.88 10.1 9.52 10.1 10.32C10.1 11.16 10.32 11.82 10.76 12.3C11.24 12.74 12.12 13.06 13.4 13.26L16.94 13.74C23.86 14.66 27.32 17.82 27.32 23.22C27.32 24.74 27 26.14 26.36 27.42C25.72 28.7 24.8 29.82 23.6 30.78C22.44 31.7 21.02 32.42 19.34 32.94C17.7 33.46 15.86 33.72 13.82 33.72Z" fill="#0062FF" transform="translate(7, 1)"/>
</svg>
